<?xml version="1.0" encoding="utf-8"?>
<!-- Generator: Adobe Illustrator 27.5.0, SVG Export Plug-In . SVG Version: 6.00 Build 0)  -->
<svg version="1.1" xmlns="http://www.w3.org/2000/svg" xmlns:xlink="http://www.w3.org/1999/xlink" x="0px" y="0px"
	 viewBox="0 0 500 500" style="enable-background:new 0 0 500 500;" xml:space="preserve">
<g id="BACKGROUND">
	<g style="opacity:0.35;">
		<g>
			<g style="opacity:0.41;">
				<path style="fill:#53D0F7;" d="M460.267,283.333c4.004,17.675,3.325,33.864-2.016,51.175
					c-6.683,21.663-21.752,41.811-43.281,54.217c-7.556,4.354-15.668,7.628-24.117,9.956c-1.378,2.196-2.87,4.322-4.455,6.378
					h72.105c18.338-21.828,28.845-49.812,30.499-78.289c0.447-7.702,0.247-15.441-0.621-23.103
					c-3.364-29.694-16.526-57.986-36.286-80.43c-0.292,1.577-0.542,3.159-0.723,4.748
					C449.217,246.893,456.156,265.186,460.267,283.333z"/>
			</g>
			<g style="opacity:0.41;">
				<path style="fill:#53D0F7;" d="M237.024,400.661c-4.229-5.846-7.539-13.296-12.026-19.264
					c-9.609,1.954-19.098,4.805-28.695,7.264c-19.64,5.032-39.872,8.775-60.14,9.053c-22.519,0.309-45.482-4.032-65.069-15.603
					c-14.936-8.823-28.072-22.305-35.175-38.401c1.982,22.2,10.032,43.847,23.597,61.347h180.917
					C239.253,403.632,238.114,402.167,237.024,400.661z"/>
			</g>
			<g style="opacity:0.41;">
				<path style="fill:#53D0F7;" d="M265.552,96.099c5.471-0.186,11.355-0.514,17.775-1c29.956-2.268,59.63,4.558,88.402,13.983
					c2.776,0.909,5.537,1.888,8.278,2.932c-12.391-13.63-28.19-24.233-45.577-30.258c-34.411-11.923-76.14-7.183-106.45,11.593
					C240.434,93.38,252.968,94.32,265.552,96.099z"/>
			</g>
			<g style="opacity:0.35;">
				<path style="fill:#53D0F7;" d="M71.095,382.113c19.587,11.57,42.55,15.911,65.069,15.603c20.268-0.278,40.5-4.021,60.14-9.053
					c9.597-2.459,19.086-5.31,28.695-7.264c-3.954-5.259-8.822-9.368-16.037-10.215c-27.915-3.278-57.211,8.742-84.975,10.901
					c-18.655,1.451-38.491-1.058-53.63-12.497c-9.82-7.42-17.012-18.15-21.934-29.695c-10.214-23.955-10.618-51.503-2.207-76.087
					c5.692-16.637,19.655-29.33,24.479-46.275c4.029-14.154-0.791-28.882,0.48-43.174c0.259-2.915,0.771-5.811,1.664-8.681
					c4.73-15.211,27.695-37.27,41.799-44.674c33.803-17.744,69.126-26.473,105.188-27.533c-20.518-3.434-39.953-9.698-74.355-17.056
					c-40.863-8.74-86.572,22.416-110.484,58.508c-2.439,3.681-4.58,7.544-6.423,11.543c-8.244,17.898-10.496,38.532-6.54,57.822
					c4.65,22.678,18.769,40.101,13.87,64.294c-2.984,14.736-3.731,28.387-5.244,42.968c-1.183,11.396,0.908,22.274,5.273,32.166
					C43.023,359.808,56.158,373.289,71.095,382.113z"/>
			</g>
			<g style="opacity:0.47;">
				<path style="fill:#53D0F7;" d="M283.327,95.099c-6.42,0.486-12.303,0.814-17.775,1c18.585,2.626,37.276,7.081,55.972,13.229
					c0.003,0.001,69.862,22.976,69.862,22.976c32.833,10.798,54.596,42.266,52.551,76.769c-0.013,0.227-0.028,0.454-0.042,0.68
					c-1.308,20-7.977,39.604-18.993,56.043c-9.975,14.885-23.74,31.533-27.186,49.802c-2.746,14.557,3.185,29.272,3.907,44.087
					c0.686,14.085-3.523,27.451-10.768,38.995c8.449-2.328,16.561-5.601,24.117-9.956c21.529-12.406,36.598-32.555,43.281-54.217
					c5.341-17.312,6.019-33.501,2.016-51.175c-4.111-18.146-11.05-36.439-8.895-55.347c0.181-1.589,0.431-3.171,0.723-4.748
					c2.131-11.502,6.673-22.738,5.702-34.36c-0.734-8.78-4.6-17.019-9.328-24.454c-15.695-24.684-41.014-41.949-68.462-52.409
					c-2.741-1.044-5.502-2.023-8.278-2.932C342.957,99.657,313.283,92.831,283.327,95.099z"/>
			</g>
			<g style="opacity:0.85;">
				<path style="fill:#53D0F7;" d="M72.837,165.674c-0.892,2.87-1.405,5.767-1.664,8.681c-1.27,14.292,3.55,29.02-0.48,43.174
					c-4.824,16.945-18.787,29.638-24.479,46.275c-8.411,24.584-8.007,52.131,2.207,76.087c4.923,11.545,12.114,22.275,21.934,29.695
					c15.139,11.439,34.975,13.948,53.63,12.497c27.764-2.159,57.06-14.179,84.975-10.901c7.216,0.847,12.083,4.956,16.037,10.215
					c4.487,5.968,7.797,13.418,12.026,19.264c1.089,1.506,2.229,2.971,3.41,4.397h145.964c1.585-2.056,3.077-4.182,4.455-6.378
					c7.244-11.544,11.454-24.91,10.768-38.995c-0.721-14.815-6.652-29.53-3.907-44.087c3.446-18.269,17.211-34.917,27.186-49.802
					c11.016-16.439,17.685-36.043,18.993-56.043c0.015-0.227,0.029-0.453,0.042-0.68c2.045-34.503-19.717-65.971-52.551-76.769
					c0,0-69.859-22.975-69.862-22.976c-18.696-6.149-37.387-10.603-55.972-13.229c-12.584-1.778-25.118-2.718-37.572-2.75
					c-2.723-0.007-5.441,0.039-8.156,0.118c-36.062,1.059-71.385,9.788-105.188,27.533
					C100.532,128.404,77.567,150.463,72.837,165.674z"/>
			</g>
		</g>
	</g>
	<circle style="opacity:0.58;fill:#3D85FD;" cx="214.603" cy="71.406" r="4.5"/>
	<circle style="opacity:0.58;fill:#2F4770;" cx="105.515" cy="441.078" r="4.5"/>
	<circle style="opacity:0.58;fill:#FFB44F;" cx="381.238" cy="442.001" r="3.5"/>
	<circle style="opacity:0.58;fill:#3D85FD;" cx="132.59" cy="98.58" r="1.5"/>
	<path style="opacity:0.58;fill:#FFB44F;" d="M405.789,103.035c-0.623,2.919-3.495,4.779-6.413,4.156
		c-2.919-0.623-4.779-3.495-4.156-6.413c0.623-2.919,3.495-4.779,6.413-4.156C404.551,97.245,406.412,100.116,405.789,103.035z"/>
	<path style="opacity:0.58;fill:#FFB44F;" d="M56.005,90.229c-1.217,5.699-6.824,9.333-12.524,8.116
		c-5.699-1.217-9.333-6.824-8.116-12.524c1.217-5.699,6.824-9.333,12.523-8.116C53.589,78.923,57.222,84.53,56.005,90.229z"/>
	<path style="opacity:0.58;fill:#FFB44F;" d="M108.072,55.924c-0.244,1.145-1.37,1.874-2.515,1.63
		c-1.145-0.244-1.874-1.37-1.63-2.515c0.244-1.145,1.371-1.874,2.515-1.63C107.587,53.653,108.317,54.779,108.072,55.924z"/>
	<path style="opacity:0.58;fill:#FFB44F;" d="M367.76,50.192c-0.244,1.145-1.371,1.874-2.515,1.63
		c-1.145-0.244-1.874-1.371-1.63-2.515c0.245-1.145,1.371-1.874,2.515-1.63C367.274,47.922,368.004,49.048,367.76,50.192z"/>
	<path style="opacity:0.58;fill:#2F4770;" d="M445.83,47.02c-0.208,0.973-1.165,1.593-2.138,1.385
		c-0.973-0.208-1.593-1.165-1.385-2.138c0.208-0.973,1.165-1.593,2.138-1.385C445.418,45.09,446.038,46.047,445.83,47.02z"/>
	
		<ellipse transform="matrix(0.2298 -0.9732 0.9732 0.2298 251.6018 521.7249)" style="opacity:0.35;fill:#53D0F7;" cx="455.414" cy="101.906" rx="7.422" ry="7.422"/>
	<circle style="opacity:0.47;fill:#BFDDE8;" cx="474.47" cy="221.218" r="6.707"/>
	<path style="opacity:0.47;fill:#BFDDE8;" d="M30.119,260.547c0,3.03-2.456,5.486-5.486,5.486s-5.486-2.456-5.486-5.486
		c0-3.03,2.456-5.486,5.486-5.486S30.119,257.517,30.119,260.547z"/>
	<path style="fill:#233863;stroke:#233863;stroke-width:3;stroke-miterlimit:10;" d="M475.422,406.412H24.578
		c-0.644,0-1.166-0.522-1.166-1.166l0,0c0-0.644,0.522-1.166,1.166-1.166h450.844c0.644,0,1.166,0.522,1.166,1.166l0,0
		C476.588,405.89,476.066,406.412,475.422,406.412z"/>
</g>
<g id="OBJECTS">
	<g>
		<g>
			<path style="fill:#53D0F7;" d="M355.642,228.663v15.145c-5.229,1.26-10.145,3.322-14.608,6.053l-10.711-10.711
				c-1.92-1.92-5.032-1.92-6.952,0l-10.023,10.023c-1.92,1.92-1.92,5.032,0,6.952l10.711,10.711
				c-2.731,4.463-4.793,9.379-6.053,14.608H302.86c-2.715,0-4.916,2.201-4.916,4.916v14.174c0,2.715,2.201,4.916,4.916,4.916h15.145
				c1.26,5.229,3.322,10.145,6.053,14.608l-10.711,10.711c-1.92,1.92-1.92,5.032,0,6.952l10.023,10.023
				c1.92,1.92,5.032,1.92,6.952,0l10.711-10.711c4.463,2.731,9.379,4.793,14.608,6.053v15.145c0,2.715,2.201,4.916,4.916,4.916
				h14.174c2.715,0,4.916-2.201,4.916-4.916v-15.145c5.229-1.26,10.145-3.322,14.608-6.053l10.711,10.711
				c1.92,1.92,5.032,1.92,6.952,0l10.023-10.023c1.92-1.92,1.92-5.032,0-6.952l-10.711-10.711c2.731-4.463,4.793-9.379,6.053-14.608
				h15.145c2.715,0,4.916-2.201,4.916-4.916v-14.174c0-2.715-2.201-4.916-4.916-4.916h-15.145
				c-1.26-5.229-3.322-10.145-6.053-14.608l10.711-10.711c1.92-1.92,1.92-5.032,0-6.952l-10.023-10.023
				c-1.92-1.92-5.032-1.92-6.952,0l-10.711,10.711c-4.463-2.731-9.379-4.793-14.608-6.053v-15.145c0-2.715-2.201-4.916-4.916-4.916
				h-14.174C357.842,223.747,355.642,225.948,355.642,228.663z M405.421,293.448c0,20.863-16.913,37.776-37.776,37.776
				s-37.776-16.913-37.776-37.776s16.913-37.776,37.776-37.776S405.421,272.585,405.421,293.448z"/>
			<path style="fill:#233863;" d="M374.731,364.647h-14.174c-3.538,0-6.416-2.878-6.416-6.416v-13.977
				c-4.516-1.197-8.836-2.988-12.873-5.335l-9.886,9.885c-2.503,2.503-6.572,2.501-9.073,0l-10.022-10.022
				c-2.502-2.501-2.502-6.572,0-9.073l9.885-9.886c-2.349-4.041-4.139-8.36-5.334-12.873H302.86c-3.538,0-6.416-2.878-6.416-6.416
				V286.36c0-3.538,2.878-6.416,6.416-6.416h13.977c1.196-4.513,2.986-8.833,5.334-12.873l-9.885-9.885
				c-1.212-1.212-1.879-2.823-1.879-4.537s0.667-3.325,1.879-4.537l10.022-10.022c2.501-2.501,6.57-2.502,9.073,0l9.886,9.885
				c4.039-2.348,8.359-4.138,12.873-5.335v-13.977c0-3.538,2.878-6.416,6.416-6.416h14.174c3.538,0,6.416,2.878,6.416,6.416v13.977
				c4.513,1.196,8.833,2.986,12.874,5.335l9.885-9.885c2.503-2.502,6.572-2.501,9.073,0l10.023,10.022
				c1.212,1.211,1.879,2.823,1.879,4.537s-0.667,3.325-1.879,4.537l-9.885,9.885c2.348,4.04,4.138,8.36,5.334,12.873h13.978
				c3.538,0,6.416,2.878,6.416,6.416v14.174c0,3.538-2.878,6.416-6.416,6.416h-13.978c-1.195,4.513-2.985,8.832-5.334,12.873
				l9.885,9.886c2.502,2.501,2.502,6.572,0,9.073l-10.023,10.022c-2.501,2.501-6.57,2.503-9.073,0l-9.885-9.885
				c-4.039,2.348-8.359,4.138-12.874,5.335v13.977C381.147,361.77,378.27,364.647,374.731,364.647z M341.035,335.533
				c0.269,0,0.54,0.072,0.782,0.221c4.395,2.689,9.164,4.666,14.176,5.875c0.674,0.162,1.148,0.765,1.148,1.458v15.145
				c0,1.884,1.532,3.416,3.416,3.416h14.174c1.884,0,3.416-1.532,3.416-3.416v-15.145c0-0.693,0.475-1.296,1.148-1.458
				c5.011-1.208,9.78-3.185,14.177-5.875c0.594-0.363,1.355-0.27,1.844,0.219l10.711,10.711c1.33,1.331,3.497,1.332,4.831,0
				l10.022-10.022c1.332-1.332,1.332-3.499,0-4.831l-10.711-10.711c-0.49-0.49-0.581-1.252-0.219-1.843
				c2.691-4.4,4.668-9.171,5.874-14.178c0.162-0.674,0.765-1.148,1.458-1.148h15.146c1.884,0,3.416-1.532,3.416-3.416V286.36
				c0-1.884-1.532-3.416-3.416-3.416h-15.146c-0.693,0-1.296-0.475-1.458-1.148c-1.207-5.008-3.184-9.777-5.874-14.176
				c-0.362-0.592-0.272-1.353,0.219-1.844l10.711-10.711c0.646-0.645,1-1.503,1-2.416c0-0.912-0.354-1.77-1-2.415l-10.022-10.023
				c-1.29-1.289-3.538-1.29-4.831,0l-10.711,10.711c-0.488,0.49-1.25,0.583-1.844,0.219c-4.399-2.692-9.169-4.669-14.177-5.874
				c-0.674-0.163-1.148-0.766-1.148-1.459v-15.145c0-1.884-1.532-3.416-3.416-3.416h-14.174c-1.884,0-3.416,1.532-3.416,3.416
				v15.145c0,0.693-0.475,1.296-1.148,1.459c-5.009,1.206-9.778,3.183-14.176,5.874c-0.592,0.361-1.355,0.27-1.844-0.219
				l-10.712-10.711c-1.291-1.29-3.54-1.289-4.831,0l-10.022,10.023c-0.646,0.645-1,1.503-1,2.415c0,0.913,0.354,1.771,1,2.416
				l10.711,10.711c0.49,0.49,0.581,1.252,0.219,1.844c-2.69,4.398-4.667,9.168-5.874,14.176c-0.162,0.674-0.765,1.148-1.458,1.148
				H302.86c-1.884,0-3.416,1.532-3.416,3.416v14.174c0,1.884,1.532,3.416,3.416,3.416h15.145c0.693,0,1.296,0.475,1.458,1.148
				c1.206,5.007,3.183,9.777,5.874,14.178c0.362,0.591,0.272,1.353-0.219,1.843l-10.711,10.711c-1.332,1.332-1.332,3.499,0,4.831
				l10.022,10.022c1.333,1.332,3.5,1.332,4.831,0l10.712-10.711C340.263,335.684,340.647,335.533,341.035,335.533z M355.642,243.809
				h0.01H355.642z M367.645,332.724c-21.657,0-39.276-17.619-39.276-39.276c0-21.656,17.619-39.275,39.276-39.275
				c21.657,0,39.276,17.619,39.276,39.275C406.921,315.104,389.302,332.724,367.645,332.724z M367.645,257.172
				c-20.003,0-36.276,16.273-36.276,36.275c0,20.003,16.273,36.276,36.276,36.276c20.003,0,36.276-16.273,36.276-36.276
				C403.921,273.445,387.647,257.172,367.645,257.172z"/>
		</g>
		<g>
			<path style="opacity:0.46;fill:#233863;" d="M324.573,279.584l-95.527-42.551c-3.207-1.429-4.649-5.187-3.221-8.394
				l42.082-94.475c1.429-3.207,5.187-4.649,8.394-3.22l95.527,42.551c3.207,1.429,4.649,5.187,3.221,8.394l-42.082,94.475
				C331.538,279.571,327.78,281.013,324.573,279.584z"/>
			<g>
				<path style="fill:#FFFFFF;" d="M320.658,270.519l-88.891-39.595c-3.207-1.429-4.649-5.187-3.221-8.394l39.595-88.891
					c1.429-3.207,5.187-4.649,8.394-3.22l88.891,39.595c3.207,1.429,4.649,5.187,3.221,8.394l-39.595,88.891
					C327.623,270.506,323.865,271.948,320.658,270.519z"/>
				<path style="fill:#233863;" d="M323.232,272.569c-1.066,0-2.149-0.219-3.184-0.68l0,0l-88.891-39.595
					c-1.917-0.854-3.388-2.403-4.14-4.363c-0.751-1.959-0.695-4.094,0.159-6.012l39.595-88.891c0.853-1.917,2.403-3.387,4.362-4.139
					c1.962-0.751,4.096-0.695,6.012,0.159l88.891,39.595c1.917,0.854,3.387,2.403,4.139,4.362c0.752,1.96,0.696,4.095-0.158,6.012
					l-39.595,88.891C329.12,270.831,326.242,272.569,323.232,272.569z M321.269,269.149c2.445,1.091,5.323-0.016,6.413-2.461
					l39.595-88.891c0.528-1.185,0.563-2.505,0.098-3.716c-0.465-1.211-1.373-2.169-2.559-2.697l-88.891-39.595
					c-1.186-0.529-2.505-0.563-3.716-0.098c-1.211,0.465-2.169,1.373-2.697,2.559l-39.595,88.891
					c-0.528,1.186-0.563,2.505-0.098,3.716c0.464,1.212,1.373,2.169,2.559,2.697L321.269,269.149z"/>
			</g>
			<g>
				<g>
					
						<rect x="257.792" y="159.665" transform="matrix(0.9135 0.4069 -0.4069 0.9135 107.4047 -104.1511)" style="fill:#FFB44F;" width="81.609" height="81.609"/>
					<path style="fill:#233863;" d="M319.267,255.846c-0.204,0-0.411-0.041-0.609-0.13l-74.548-33.206
						c-0.363-0.162-0.648-0.462-0.79-0.833c-0.143-0.371-0.132-0.784,0.03-1.147l33.206-74.548c0.338-0.757,1.225-1.096,1.98-0.76
						l74.548,33.206c0.363,0.162,0.647,0.461,0.79,0.833c0.143,0.371,0.132,0.784-0.03,1.148l-33.206,74.547
						C320.389,255.515,319.841,255.846,319.267,255.846z M246.7,220.38l71.808,31.985l31.985-71.807l-71.808-31.985L246.7,220.38z"
						/>
				</g>
				<g>
					<path style="fill:#FFFFFF;" d="M251.636,205.89l16.567-13.133c4.424-3.506,10.986-1.577,12.807,3.766l3.501,10.268
						c1.378,4.042,6.227,5.661,9.758,3.259l18.33-12.473c7.141-4.859,16.872-0.239,17.62,8.365l1.754,20.154l-12.781,28.694
						l-74.548-33.206L251.636,205.89z"/>
					<path style="fill:#233863;" d="M319.192,256.29c-0.204,0-0.411-0.041-0.609-0.13l-74.548-33.206
						c-0.363-0.162-0.648-0.461-0.79-0.833c-0.143-0.371-0.132-0.784,0.03-1.147l6.991-15.694c0.099-0.221,0.249-0.415,0.438-0.565
						l16.567-13.132c2.496-1.979,5.679-2.597,8.733-1.7c3.056,0.898,5.397,3.142,6.425,6.156l3.502,10.267
						c0.504,1.48,1.644,2.613,3.126,3.108c1.483,0.495,3.074,0.275,4.368-0.605l18.33-12.473c3.796-2.585,8.543-2.952,12.693-0.981
						c4.15,1.97,6.866,5.879,7.265,10.456l1.754,20.154c0.022,0.253-0.021,0.508-0.124,0.74L320.564,255.4
						C320.315,255.959,319.767,256.29,319.192,256.29z M246.626,220.825l71.808,31.985l12.013-26.97l-1.72-19.768
						c-0.306-3.504-2.385-6.498-5.564-8.006c-3.177-1.509-6.811-1.227-9.719,0.752l-18.33,12.473
						c-2.072,1.411-4.626,1.764-7.006,0.97c-2.378-0.794-4.206-2.611-5.016-4.985l-3.502-10.267
						c-0.709-2.079-2.323-3.627-4.432-4.247c-2.104-0.62-4.302-0.192-6.023,1.172l-16.278,12.904L246.626,220.825z"/>
				</g>
				<g>
					<path style="fill:#FFFFFF;" d="M305.911,189.723c-2.045,4.59-7.424,6.654-12.014,4.609c-4.59-2.045-6.654-7.424-4.609-12.014
						c2.045-4.59,7.424-6.654,12.014-4.609C305.892,179.754,307.956,185.133,305.911,189.723z"/>
					<path style="fill:#233863;" d="M297.596,196.626c-1.467,0-2.93-0.308-4.309-0.923c-2.586-1.152-4.569-3.242-5.583-5.885
						c-1.015-2.644-0.939-5.523,0.214-8.109c1.151-2.586,3.241-4.569,5.885-5.583c2.642-1.013,5.521-0.939,8.109,0.214
						c2.586,1.152,4.569,3.242,5.583,5.885c1.015,2.644,0.939,5.523-0.214,8.11l0,0c-1.152,2.586-3.242,4.569-5.886,5.583
						C300.163,196.39,298.878,196.626,297.596,196.626z M297.602,178.418c-0.919,0-1.84,0.169-2.725,0.508
						c-1.895,0.727-3.393,2.149-4.219,4.003s-0.881,3.919-0.153,5.814c0.727,1.895,2.148,3.394,4.003,4.22
						c1.855,0.825,3.919,0.88,5.813,0.153c1.896-0.727,3.394-2.149,4.22-4.003l0,0c0.826-1.854,0.881-3.919,0.153-5.814
						c-0.727-1.895-2.148-3.393-4.003-4.219C299.702,178.639,298.653,178.418,297.602,178.418z M305.911,189.724h0.01H305.911z"/>
				</g>
			</g>
		</g>
		<path style="fill:#53D0F7;" d="M139.678,359.201h-14.174c-3.538,0-6.416-2.878-6.416-6.416v-13.978
			c-4.513-1.195-8.833-2.986-12.874-5.335l-9.885,9.886c-2.501,2.499-6.57,2.501-9.073,0l-10.022-10.023
			c-2.502-2.501-2.502-6.572,0-9.073l9.885-9.885c-2.347-4.037-4.138-8.358-5.335-12.873H67.807c-3.538,0-6.416-2.878-6.416-6.416
			v-14.175c0-3.538,2.878-6.416,6.416-6.416h13.977c1.197-4.516,2.988-8.836,5.335-12.873l-9.885-9.885
			c-1.212-1.212-1.879-2.823-1.879-4.537c0-1.714,0.667-3.325,1.879-4.537l10.022-10.022c2.501-2.501,6.57-2.503,9.073,0
			l9.885,9.885c4.041-2.348,8.361-4.139,12.874-5.335v-13.978c0-3.538,2.878-6.416,6.416-6.416h14.174
			c3.538,0,6.416,2.878,6.416,6.416v13.978c4.514,1.196,8.833,2.986,12.873,5.335l9.885-9.885c2.502-2.502,6.572-2.502,9.074,0
			l10.022,10.023c1.212,1.211,1.879,2.823,1.879,4.537c0,1.713-0.667,3.325-1.879,4.537l-9.885,9.885
			c2.348,4.04,4.138,8.36,5.334,12.873h13.977c3.538,0,6.416,2.878,6.416,6.416v14.175c0,3.538-2.878,6.416-6.416,6.416h-13.977
			c-1.196,4.513-2.986,8.833-5.334,12.873l9.885,9.885c2.502,2.501,2.502,6.572,0,9.073l-10.022,10.023
			c-2.502,2.501-6.572,2.501-9.074,0l-9.885-9.886c-4.039,2.349-8.359,4.139-12.873,5.335v13.978
			C146.094,356.323,143.216,359.201,139.678,359.201z M105.98,330.086c0.269,0,0.54,0.072,0.782,0.221
			c4.399,2.691,9.169,4.668,14.177,5.875c0.674,0.162,1.148,0.765,1.148,1.458v15.146c0,1.884,1.532,3.416,3.416,3.416h14.174
			c1.884,0,3.416-1.532,3.416-3.416V337.64c0-0.693,0.475-1.296,1.148-1.458c5.009-1.207,9.778-3.184,14.176-5.875
			c0.594-0.362,1.355-0.271,1.844,0.219l10.711,10.712c1.332,1.33,3.5,1.33,4.832,0l10.022-10.023c1.332-1.332,1.332-3.499,0-4.831
			l-10.711-10.711c-0.49-0.49-0.581-1.252-0.219-1.844c2.69-4.398,4.667-9.168,5.874-14.176c0.162-0.674,0.765-1.148,1.458-1.148
			h15.145c1.884,0,3.416-1.532,3.416-3.416v-14.175c0-1.884-1.532-3.416-3.416-3.416H182.23c-0.693,0-1.296-0.475-1.458-1.148
			c-1.207-5.008-3.184-9.777-5.874-14.176c-0.362-0.592-0.271-1.354,0.219-1.844l10.711-10.711c0.646-0.645,1-1.503,1-2.416
			c0-0.913-0.354-1.771-1-2.416l-10.022-10.023c-1.332-1.332-3.5-1.332-4.832,0l-10.711,10.711c-0.488,0.49-1.25,0.583-1.844,0.219
			c-4.398-2.691-9.167-4.667-14.176-5.874c-0.674-0.163-1.148-0.766-1.148-1.458v-15.146c0-1.884-1.532-3.416-3.416-3.416h-14.174
			c-1.884,0-3.416,1.532-3.416,3.416v15.146c0,0.693-0.475,1.296-1.148,1.458c-5.008,1.206-9.777,3.183-14.177,5.874
			c-0.593,0.362-1.354,0.271-1.844-0.219l-10.711-10.711c-1.333-1.332-3.5-1.332-4.831,0l-10.023,10.023
			c-0.645,0.645-1,1.503-1,2.416c0,0.912,0.355,1.77,1,2.416l10.711,10.711c0.49,0.49,0.581,1.252,0.219,1.844
			c-2.689,4.395-4.666,9.164-5.875,14.176c-0.162,0.674-0.765,1.148-1.458,1.148H67.807c-1.884,0-3.416,1.532-3.416,3.416v14.175
			c0,1.884,1.532,3.416,3.416,3.416h15.145c0.693,0,1.296,0.475,1.458,1.148c1.209,5.012,3.186,9.781,5.875,14.176
			c0.362,0.592,0.271,1.354-0.219,1.844l-10.711,10.711c-1.332,1.332-1.332,3.499,0,4.831l10.023,10.023
			c1.333,1.33,3.5,1.33,4.831,0l10.711-10.712C105.208,330.236,105.592,330.086,105.98,330.086z M120.588,238.362h0.01H120.588z
			 M132.591,327.276c-21.657,0-39.276-17.619-39.276-39.275c0-21.657,17.619-39.276,39.276-39.276
			c21.656,0,39.275,17.619,39.275,39.276C171.866,309.657,154.247,327.276,132.591,327.276z M132.591,251.725
			c-20.003,0-36.276,16.273-36.276,36.276c0,20.002,16.273,36.275,36.276,36.275c20.002,0,36.275-16.273,36.275-36.275
			C168.866,267.998,152.593,251.725,132.591,251.725z"/>
	</g>
	<g>
		<g>
			<path style="fill:#FFFFFF;" d="M100.51,177.539h-6.478c-0.211-10.096-8.456-18.216-18.602-18.216s-18.391,8.12-18.602,18.216
				H50.35c-5.227,0-9.504,4.277-9.504,9.504l0,0c0,5.227,4.277,9.504,9.504,9.504h50.16c5.227,0,9.504-4.277,9.504-9.504l0,0
				C110.015,181.816,105.738,177.539,100.51,177.539z"/>
			<path style="fill:#233863;" d="M100.511,198.047h-50.16c-6.067,0-11.004-4.937-11.004-11.004c0-6.068,4.937-11.004,11.004-11.004
				h5.063c0.968-10.17,9.655-18.216,20.018-18.216c10.362,0,19.05,8.046,20.017,18.216h5.063c6.067,0,11.004,4.937,11.004,11.004
				C111.515,193.111,106.578,198.047,100.511,198.047z M50.351,179.039c-4.413,0-8.004,3.591-8.004,8.004
				c0,4.413,3.591,8.004,8.004,8.004h50.16c4.413,0,8.004-3.59,8.004-8.004c0-4.414-3.591-8.004-8.004-8.004h-6.479
				c-0.816,0-1.482-0.653-1.5-1.469c-0.192-9.234-7.864-16.747-17.101-16.747c-9.236,0-16.909,7.513-17.103,16.747
				c-0.018,0.816-0.684,1.469-1.5,1.469H50.351z"/>
		</g>
		<g>
			<path style="fill:#FFFFFF;" d="M442.658,175.678h-6.894c-0.225-10.744-8.999-19.385-19.796-19.385
				c-10.798,0-19.571,8.642-19.796,19.385h-6.894c-5.563,0-10.114,4.551-10.114,10.114v0c0,5.563,4.551,10.114,10.114,10.114h53.38
				c5.563,0,10.114-4.551,10.114-10.114v0C452.773,180.229,448.221,175.678,442.658,175.678z"/>
			<path style="fill:#233863;" d="M442.658,197.406h-53.38c-6.404,0-11.614-5.21-11.614-11.614c0-6.404,5.21-11.614,11.614-11.614
				h5.476c0.982-10.817,10.205-19.385,21.214-19.385c11.008,0,20.231,8.569,21.215,19.385h5.476c6.404,0,11.614,5.21,11.614,11.614
				C454.272,192.196,449.063,197.406,442.658,197.406z M389.278,177.178c-4.75,0-8.614,3.864-8.614,8.614s3.864,8.614,8.614,8.614
				h53.38c4.75,0,8.614-3.864,8.614-8.614s-3.864-8.614-8.614-8.614h-6.894c-0.816,0-1.482-0.652-1.5-1.469
				c-0.207-9.879-8.415-17.917-18.297-17.917c-9.882,0-18.09,8.038-18.296,17.917c-0.018,0.816-0.684,1.469-1.5,1.469H389.278z"/>
		</g>
	</g>
	<g>
		<g>
			<g>
				<g>
					<path style="fill:#ECF1F7;" d="M372.849,373.825H127.255V209.268c0-2.753,2.232-4.985,4.985-4.985h235.624
						c2.753,0,4.985,2.232,4.985,4.985V373.825z"/>
					<g>
						<path style="fill:#2F4770;" d="M127.89,373.191h244.324V209.268c0-2.399-1.951-4.351-4.351-4.351H132.239
							c-2.398,0-4.349,1.951-4.349,4.351V373.191z"/>
						<path style="fill:#233863;" d="M372.214,374.69H127.89c-0.828,0-1.5-0.672-1.5-1.5V209.268c0-3.226,2.624-5.851,5.85-5.851
							h235.624c3.226,0,5.851,2.625,5.851,5.851V373.19C373.714,374.019,373.042,374.69,372.214,374.69z M129.39,371.69h241.324
							V209.268c0-1.572-1.278-2.851-2.851-2.851H132.239c-1.571,0-2.85,1.279-2.85,2.851V371.69z"/>
					</g>
				</g>
				<g>
					<path style="fill:#243762;" d="M266.452,369.611h-32.8v-3.792h32.8V369.611z"/>
				</g>
				<g>
					<path style="fill:#ECF1F7;" d="M252.753,210.497c0,1.444-1.233,2.614-2.753,2.614s-2.753-1.171-2.753-2.614
						c0-1.444,1.233-2.614,2.753-2.614S252.753,209.053,252.753,210.497z"/>
				</g>
				<g>
					<g>
						<g>
							<path style="fill:#2F4770;" d="M398.865,403.595H100.88c-3.234,0-5.855-1.751-5.855-3.911v-6.163
								c0-0.609,0.739-1.102,1.65-1.102h306.65c0.911,0,1.65,0.493,1.65,1.102v5.992
								C404.975,401.767,402.24,403.595,398.865,403.595z"/>
							<path style="fill:#233863;" d="M398.865,405.095H100.88c-4.125,0-7.355-2.377-7.355-5.411v-6.162
								c0-1.459,1.384-2.603,3.15-2.603h306.65c1.767,0,3.15,1.144,3.15,2.603v5.992
								C406.476,402.644,403.133,405.095,398.865,405.095z M96.524,393.931v5.753c0,1.138,1.862,2.411,4.355,2.411h297.985
								c2.717,0,4.61-1.36,4.61-2.581v-5.583c-0.043-0.007-0.094-0.012-0.15-0.012H96.675
								C96.618,393.919,96.567,393.924,96.524,393.931z"/>
						</g>
					</g>
				</g>
			</g>
			<g>
				<g>
					<g>
						<path style="fill:#FFFFFF;" d="M143.566,361.095h212.971c3.014,0,5.457-2.443,5.457-5.457v-132.44
							c0-3.014-2.443-5.456-5.457-5.456H143.566c-3.014,0-5.456,2.443-5.456,5.456v132.44
							C138.11,358.652,140.553,361.095,143.566,361.095z"/>
						<path style="fill:#233863;" d="M356.537,362.595H143.566c-3.836,0-6.957-3.12-6.957-6.956v-132.44
							c0-3.836,3.121-6.956,6.957-6.956h212.971c3.836,0,6.957,3.121,6.957,6.956v132.44
							C363.494,359.475,360.373,362.595,356.537,362.595z M143.566,219.242c-2.182,0-3.957,1.775-3.957,3.956v132.44
							c0,2.182,1.775,3.956,3.957,3.956h212.971c2.182,0,3.957-1.774,3.957-3.956v-132.44c0-2.182-1.775-3.956-3.957-3.956H143.566z
							"/>
					</g>
					<path style="opacity:0.11;fill:#233863;" d="M143.566,361.095h212.971c3.014,0,5.457-2.443,5.457-5.457v-132.44
						c0-3.014-2.443-5.456-5.457-5.456H143.566c-3.014,0-5.456,2.443-5.456,5.456v132.44
						C138.11,358.652,140.553,361.095,143.566,361.095z"/>
					<g>
						<g>
							<path style="fill:#3887FE;" d="M361.005,230.607v-5.195c0-3.781-2.424-6.846-5.415-6.846H144.253
								c-2.99,0-5.415,3.065-5.415,6.846v5.215L361.005,230.607z"/>
							<path style="fill:#233863;" d="M138.838,231.626c-0.265,0-0.52-0.105-0.707-0.293s-0.293-0.442-0.293-0.707v-5.215
								c0-4.326,2.878-7.846,6.415-7.846H355.59c3.537,0,6.415,3.52,6.415,7.846v5.195c0,0.552-0.447,1-1,1L138.838,231.626z
								 M361.005,230.606h0.01H361.005z M144.253,219.565c-2.434,0-4.415,2.623-4.415,5.846v4.215l220.167-0.02v-4.195
								c0-3.224-1.98-5.846-4.415-5.846H144.253z"/>
						</g>
						<circle style="fill:#FFFFFF;" cx="340.974" cy="224.44" r="1.261"/>
						<circle style="fill:#FFFFFF;" cx="346.018" cy="224.44" r="1.261"/>
						<path style="fill:#FFFFFF;" d="M352.324,224.44c0,0.697-0.565,1.261-1.261,1.261c-0.697,0-1.261-0.565-1.261-1.261
							s0.565-1.261,1.261-1.261C351.76,223.179,352.324,223.744,352.324,224.44z"/>
					</g>
				</g>
			</g>
			<g>
				<g>
					<path style="fill:#2F4770;" d="M128.374,373.977l-30.061,17.666l302.817-0.133l-27.67-17.454L128.374,373.977z"/>
					<path style="fill:#233863;" d="M98.313,393.144c-0.677,0-1.27-0.453-1.448-1.105c-0.178-0.653,0.104-1.345,0.688-1.688
						l30.062-17.666c0.23-0.136,0.492-0.207,0.76-0.207l0,0l245.087,0.079c0.282,0,0.56,0.08,0.799,0.231l27.67,17.454
						c0.565,0.356,0.826,1.043,0.642,1.685c-0.186,0.642-0.772,1.084-1.44,1.084L98.313,393.144z M128.782,375.478l-24.952,14.664
						l292.114-0.129l-22.918-14.456L128.782,375.478z"/>
				</g>
				<g style="opacity:0.23;">
					<path style="fill:#ECF1F7;" d="M128.682,373.342c-0.315,0-0.624,0.084-0.895,0.243c0,0-28.5,18.694-29.846,18.694
						l299.282-0.132c1.769-0.001,2.437-2.314,0.941-3.258l-24.091-15.196c-0.282-0.178-0.608-0.272-0.941-0.272L128.682,373.342z"/>
					<path style="fill:#233863;" d="M97.942,393.78l-0.002-3c-0.199,0-0.328,0.044-0.333,0.046
						c1.801-0.627,18.963-11.677,29.357-18.494c0.562-0.334,1.135-0.49,1.718-0.49h0.001l244.45,0.08
						c0.615,0,1.217,0.174,1.74,0.503l24.09,15.196c1.242,0.783,1.803,2.257,1.396,3.667c-0.407,1.41-1.667,2.358-3.135,2.359
						L97.942,393.78L97.942,393.78z M128.683,374.842c-0.048,0-0.093,0.012-0.134,0.036c-13.209,8.665-20.627,13.358-24.839,15.899
						l293.513-0.13c0.06,0,0.199,0,0.255-0.191c0.055-0.191-0.059-0.263-0.113-0.298l-24.09-15.195
						c-0.043-0.026-0.092-0.041-0.142-0.041l-244.451-0.08H128.683z"/>
				</g>
			</g>
			<g>
				<g>
					<g>
						<g>
							<path style="fill:#FFFFFF;" d="M168.909,373.342l-21.423,12.59c0,0-0.004,0,0,0l204.33-0.09l-19.733-12.447L168.909,373.342z
								"/>
							<path style="fill:#233863;" d="M147.485,387.433c-0.677,0-1.27-0.453-1.447-1.105c-0.178-0.653,0.104-1.345,0.688-1.688
								l21.424-12.591c0.23-0.136,0.492-0.207,0.76-0.207c0,0,0,0,0.001,0l163.173,0.054c0.282,0,0.56,0.08,0.799,0.232
								l19.733,12.447c0.565,0.357,0.826,1.043,0.642,1.685c-0.186,0.642-0.772,1.084-1.44,1.084L147.485,387.433
								C147.485,387.433,147.485,387.433,147.485,387.433z M169.317,374.842l-16.315,9.589l193.628-0.086l-14.982-9.449
								L169.317,374.842z"/>
						</g>
					</g>
				</g>
				<g>
					<line style="fill:#FFFFFF;" x1="184.265" y1="373.347" x2="166.353" y2="385.924"/>
					<path style="fill:#233863;" d="M166.355,387.424c-0.472,0-0.937-0.223-1.229-0.638c-0.477-0.679-0.313-1.614,0.365-2.09
						l17.911-12.577c0.678-0.478,1.613-0.313,2.09,0.365c0.477,0.679,0.313,1.614-0.365,2.09l-17.911,12.577
						C166.953,387.336,166.652,387.424,166.355,387.424z"/>
				</g>
				<g>
					<line style="fill:#FFFFFF;" x1="199.621" y1="373.347" x2="185.71" y2="385.924"/>
					<path style="fill:#233863;" d="M185.71,387.424c-0.409,0-0.816-0.166-1.112-0.494c-0.556-0.614-0.508-1.563,0.106-2.118
						l13.911-12.577c0.615-0.555,1.563-0.51,2.118,0.106c0.556,0.614,0.508,1.563-0.106,2.118l-13.911,12.577
						C186.429,387.296,186.069,387.424,185.71,387.424z"/>
				</g>
				<g>
					<line style="fill:#FFFFFF;" x1="214.603" y1="374.005" x2="206.829" y2="385.059"/>
					<path style="fill:#233863;" d="M206.827,386.559c-0.299,0-0.6-0.089-0.862-0.273c-0.678-0.477-0.84-1.412-0.363-2.09
						l7.774-11.054c0.476-0.678,1.412-0.84,2.09-0.363c0.678,0.477,0.84,1.412,0.363,2.09l-7.774,11.054
						C207.763,386.337,207.299,386.559,206.827,386.559z"/>
				</g>
				<g>
					<line style="fill:#FFFFFF;" x1="314.324" y1="373.347" x2="332.235" y2="385.924"/>
					<path style="fill:#233863;" d="M332.234,387.424c-0.298,0-0.599-0.088-0.861-0.272l-17.911-12.577
						c-0.678-0.476-0.842-1.411-0.365-2.09c0.477-0.677,1.412-0.842,2.09-0.365l17.911,12.577c0.678,0.476,0.842,1.411,0.365,2.09
						C333.171,387.201,332.706,387.424,332.234,387.424z"/>
				</g>
				<g>
					<line style="fill:#FFFFFF;" x1="298.967" y1="373.347" x2="312.879" y2="385.924"/>
					<path style="fill:#233863;" d="M312.879,387.424c-0.359,0-0.719-0.128-1.006-0.388l-13.912-12.577
						c-0.614-0.555-0.662-1.504-0.106-2.118c0.557-0.614,1.505-0.661,2.118-0.106l13.912,12.577
						c0.614,0.555,0.662,1.504,0.106,2.118C313.695,387.257,313.288,387.424,312.879,387.424z"/>
				</g>
				<g>
					<line style="fill:#FFFFFF;" x1="283.986" y1="374.005" x2="291.76" y2="385.059"/>
					<path style="fill:#233863;" d="M291.761,386.559c-0.472,0-0.936-0.222-1.228-0.637l-7.774-11.054
						c-0.477-0.678-0.314-1.613,0.363-2.09c0.678-0.477,1.612-0.314,2.09,0.363l7.774,11.054c0.477,0.678,0.315,1.613-0.363,2.09
						C292.36,386.47,292.06,386.559,291.761,386.559z"/>
				</g>
				<g>
					<line style="fill:#FFFFFF;" x1="160.129" y1="378.502" x2="338.235" y2="378.502"/>
					<path style="fill:#233863;" d="M338.235,380.002H160.129c-0.828,0-1.5-0.672-1.5-1.5c0-0.828,0.672-1.5,1.5-1.5h178.107
						c0.828,0,1.5,0.672,1.5,1.5C339.735,379.33,339.064,380.002,338.235,380.002z"/>
				</g>
				<g>
					<line style="fill:#FFFFFF;" x1="250.052" y1="374.017" x2="250.052" y2="385.887"/>
					<path style="fill:#233863;" d="M250.052,387.388c-0.828,0-1.5-0.672-1.5-1.5v-11.871c0-0.828,0.672-1.5,1.5-1.5
						c0.828,0,1.5,0.672,1.5,1.5v11.871C251.552,386.716,250.88,387.388,250.052,387.388z"/>
				</g>
				<g>
					<line style="fill:#FFFFFF;" x1="232.706" y1="374.385" x2="228" y2="386.294"/>
					<path style="fill:#233863;" d="M228,387.794c-0.184,0-0.37-0.033-0.552-0.105c-0.77-0.304-1.147-1.176-0.843-1.946
						l4.706-11.908c0.304-0.771,1.173-1.151,1.946-0.843c0.77,0.304,1.148,1.176,0.843,1.946l-4.706,11.908
						C229.162,387.435,228.597,387.794,228,387.794z"/>
				</g>
				<g>
					<line style="fill:#FFFFFF;" x1="266.389" y1="374.385" x2="271.095" y2="386.294"/>
					<path style="fill:#233863;" d="M271.095,387.794c-0.598,0-1.162-0.359-1.395-0.948l-4.706-11.908
						c-0.305-0.771,0.073-1.643,0.843-1.946c0.773-0.307,1.643,0.073,1.946,0.843l4.706,11.908c0.305,0.771-0.073,1.643-0.843,1.946
						C271.465,387.761,271.278,387.794,271.095,387.794z"/>
				</g>
			</g>
		</g>
		<g>
			<g>
				<path style="fill:#FFA539;" d="M216.205,311.349l67.456,0.142c5.177,0.011,9.42-3.797,9.43-8.462l0.083-39.582
					c0.01-4.665-4.218-8.491-9.395-8.502l-67.455-0.142c-5.177-0.011-9.42,3.797-9.43,8.462l-0.083,39.582
					C206.801,307.513,211.028,311.338,216.205,311.349z"/>
				<path style="fill:#233863;" d="M283.683,312.991c-0.009,0-0.018,0-0.025,0l-67.455-0.143c-2.875-0.006-5.591-1.033-7.646-2.893
					c-2.099-1.899-3.252-4.425-3.246-7.111l0.083-39.582c0.012-5.497,4.902-9.96,10.908-9.96c0.009,0,0.018,0,0.025,0l67.455,0.142
					c2.875,0.006,5.591,1.033,7.646,2.894c2.099,1.899,3.252,4.425,3.246,7.111l-0.083,39.582
					C294.579,308.528,289.689,312.991,283.683,312.991z M216.302,256.303c-4.355,0-7.9,3.121-7.908,6.966l-0.083,39.582
					c-0.004,1.826,0.799,3.56,2.259,4.881c1.504,1.36,3.507,2.112,5.639,2.117l0,0l67.455,0.143c0.007,0,0.013,0,0.02,0
					c4.355,0,7.9-3.121,7.908-6.966l0.083-39.582c0.004-1.826-0.799-3.56-2.259-4.881c-1.504-1.361-3.507-2.113-5.639-2.118
					l-67.455-0.142C216.315,256.303,216.309,256.303,216.302,256.303z"/>
			</g>
			<g>
				<path style="fill:#FFB44F;" d="M213.122,244.671l18.271,0.038c3.388,0.007,6.154,2.785,6.147,6.173l-0.018,8.743l46.277,0.097
					c5.177,0.011,9.404,4.255,9.393,9.432l-0.092,43.924c-0.011,5.177-4.255,9.404-9.432,9.393l-67.455-0.142
					c-5.177-0.011-9.404-4.255-9.393-9.432l0.09-43.025l0.002-0.9l0.038-18.156C206.957,247.43,209.735,244.664,213.122,244.671z"/>
				<path style="fill:#233863;" d="M283.688,323.972c-0.008,0-0.015,0-0.022,0l-67.456-0.142c-2.904-0.006-5.64-1.149-7.701-3.22
					c-2.063-2.071-3.194-4.811-3.188-7.715l0.131-62.081c0.004-2.039,0.807-3.959,2.26-5.406c1.449-1.443,3.366-2.237,5.398-2.237
					c0.006,0,0.011,0,0.017,0l18.271,0.038c4.224,0.009,7.652,3.452,7.643,7.675l-0.016,7.243l44.777,0.095
					c2.905,0.006,5.641,1.149,7.702,3.22c2.063,2.07,3.194,4.81,3.189,7.715l-0.093,43.925c-0.006,2.904-1.149,5.64-3.22,7.701
					C289.315,322.84,286.584,323.972,283.688,323.972z M213.108,246.171c-1.233,0-2.398,0.484-3.281,1.363
					c-0.886,0.882-1.374,2.049-1.377,3.287l-0.131,62.081c-0.004,2.104,0.817,4.089,2.313,5.592c1.497,1.503,3.48,2.333,5.582,2.337
					l67.456,0.142c0.006,0,0.012,0,0.017,0c2.097,0,4.076-0.821,5.575-2.314c1.503-1.497,2.333-3.479,2.337-5.582l0.093-43.925
					c0.004-2.103-0.817-4.089-2.314-5.592c-1.497-1.503-3.479-2.333-5.583-2.337l-46.277-0.098c-0.398-0.001-0.779-0.16-1.06-0.441
					c-0.281-0.282-0.439-0.664-0.438-1.061l0.018-8.744c0.005-2.569-2.081-4.664-4.649-4.669l-18.271-0.038l0,0
					C213.115,246.171,213.112,246.171,213.108,246.171z"/>
			</g>
			<path style="opacity:0.12;fill:#FFFFFF;" d="M213.757,251.677l16.348,0.034c3.031,0.006,5.506,2.492,5.5,5.524l-0.016,7.825
				l41.407,0.087c4.632,0.01,8.414,3.808,8.404,8.441l-0.083,39.309c-0.01,4.633-3.807,8.415-8.439,8.406l-60.356-0.127
				c-4.632-0.01-8.414-3.808-8.404-8.441l0.081-38.504l0.002-0.805l0.034-16.248C208.241,254.146,210.726,251.671,213.757,251.677z"
				/>
			<path style="fill:#FFFFFF;" d="M282.324,313.273c0,1.699,1.377,3.076,3.076,3.076c1.699,0,3.076-1.377,3.076-3.076
				c0-1.699-1.377-3.076-3.076-3.076C283.701,310.197,282.324,311.574,282.324,313.273z"/>
			<path style="fill:#FFFFFF;" d="M211.693,260.177c-0.553,0-1-0.447-1-1v-6.581c0-1.928,1.649-3.497,3.678-3.497h4.795
				c0.553,0,1,0.448,1,1c0,0.552-0.447,1-1,1h-4.795c-0.925,0-1.678,0.672-1.678,1.497v6.581
				C212.693,259.729,212.246,260.177,211.693,260.177z"/>
			<g>
				<g>
					<path style="fill:#FFFFFF;" d="M254.857,287.451c-0.38,0-0.76-0.144-1.052-0.431l-4.845-4.762l-4.752,4.753
						c-0.586,0.586-1.535,0.586-2.121,0c-0.586-0.586-0.586-1.535,0-2.121l5.804-5.805c0.583-0.582,1.525-0.585,2.112-0.009
						l5.905,5.805c0.591,0.58,0.599,1.53,0.018,2.121C255.634,287.302,255.245,287.451,254.857,287.451z"/>
					<path style="fill:#FFFFFF;" d="M249.003,296.611c-0.828,0-1.5-0.672-1.5-1.5v-14.965c0-0.828,0.672-1.5,1.5-1.5
						c0.828,0,1.5,0.672,1.5,1.5v14.965C250.503,295.94,249.831,296.611,249.003,296.611z"/>
				</g>
				<path style="fill:#FFFFFF;" d="M260.061,303.718h-21.945c-1.86,0-3.374-1.513-3.374-3.373v-7.801c0-0.828,0.672-1.5,1.5-1.5
					c0.828,0,1.5,0.672,1.5,1.5v7.801c0,0.206,0.168,0.373,0.374,0.373h21.945c0.111,0,0.201-0.09,0.201-0.201v-7.973
					c0-0.828,0.672-1.5,1.5-1.5s1.5,0.672,1.5,1.5v7.973C263.263,302.281,261.826,303.718,260.061,303.718z"/>
			</g>
		</g>
		<g>
			<g>
				<path style="fill:#3D85FD;" d="M272.369,350.124h-44.738c-3.343,0-6.053-2.71-6.053-6.053v-1.841
					c0-3.343,2.71-6.053,6.053-6.053h44.738c3.343,0,6.053,2.71,6.053,6.053v1.841C278.422,347.414,275.712,350.124,272.369,350.124
					z"/>
				<path style="fill:#233863;" d="M272.369,351.124h-44.738c-3.89,0-7.054-3.164-7.054-7.054v-1.841
					c0-3.889,3.164-7.053,7.054-7.053h44.738c3.89,0,7.054,3.164,7.054,7.053v1.841C279.423,347.96,276.259,351.124,272.369,351.124
					z M227.631,337.177c-2.787,0-5.054,2.267-5.054,5.053v1.841c0,2.787,2.267,5.054,5.054,5.054h44.738
					c2.787,0,5.054-2.267,5.054-5.054v-1.841c0-2.786-2.267-5.053-5.054-5.053H227.631z"/>
			</g>
			<g>
				<path style="fill:#FFFFFF;" d="M272.369,350.124h-25.988c-3.343,0-6.053-2.71-6.053-6.053v-1.841
					c0-3.343,2.71-6.053,6.053-6.053h25.988c3.343,0,6.053,2.71,6.053,6.053v1.841C278.422,347.414,275.712,350.124,272.369,350.124
					z"/>
				<path style="fill:#233863;" d="M272.369,351.124h-25.988c-3.889,0-7.053-3.164-7.053-7.054v-1.841
					c0-3.889,3.164-7.053,7.053-7.053h25.988c3.89,0,7.054,3.164,7.054,7.053v1.841C279.423,347.96,276.259,351.124,272.369,351.124
					z M246.381,337.177c-2.786,0-5.053,2.267-5.053,5.053v1.841c0,2.787,2.267,5.054,5.053,5.054h25.988
					c2.787,0,5.054-2.267,5.054-5.054v-1.841c0-2.786-2.267-5.053-5.054-5.053H246.381z"/>
			</g>
			<g>
				<rect x="230.281" y="336.177" style="fill:#3D85FD;" width="7.825" height="13.947"/>
				<path style="fill:#233863;" d="M238.105,351.124h-7.824c-0.553,0-1-0.447-1-1v-13.947c0-0.553,0.447-1,1-1h7.824
					c0.553,0,1,0.447,1,1v13.947C239.105,350.677,238.658,351.124,238.105,351.124z M231.281,349.124h5.824v-11.947h-5.824V349.124z
					"/>
			</g>
			<g>
				<rect x="238.022" y="336.177" style="fill:#3D85FD;" width="7.825" height="13.947"/>
				<path style="fill:#233863;" d="M245.846,351.124h-7.824c-0.553,0-1-0.447-1-1v-13.947c0-0.553,0.447-1,1-1h7.824
					c0.553,0,1,0.447,1,1v13.947C246.846,350.677,246.398,351.124,245.846,351.124z M239.021,349.124h5.824v-11.947h-5.824V349.124z
					"/>
			</g>
			<g>
				<rect x="245.904" y="336.177" style="fill:#3D85FD;" width="7.825" height="13.947"/>
				<path style="fill:#233863;" d="M253.729,351.124h-7.824c-0.553,0-1-0.447-1-1v-13.947c0-0.553,0.447-1,1-1h7.824
					c0.553,0,1,0.447,1,1v13.947C254.729,350.677,254.281,351.124,253.729,351.124z M246.904,349.124h5.824v-11.947h-5.824V349.124z
					"/>
			</g>
			<g>
				<rect x="253.645" y="336.177" style="fill:#3D85FD;" width="7.825" height="13.947"/>
				<path style="fill:#233863;" d="M261.47,351.124h-7.825c-0.553,0-1-0.447-1-1v-13.947c0-0.553,0.447-1,1-1h7.825
					c0.553,0,1,0.447,1,1v13.947C262.47,350.677,262.022,351.124,261.47,351.124z M254.645,349.124h5.825v-11.947h-5.825V349.124z"
					/>
			</g>
			<g>
				<rect x="261.469" y="336.177" style="fill:#FFFFFF;" width="7.825" height="13.947"/>
				<path style="fill:#233863;" d="M269.294,351.124h-7.824c-0.553,0-1-0.447-1-1v-13.947c0-0.553,0.447-1,1-1h7.824
					c0.553,0,1,0.447,1,1v13.947C270.294,350.677,269.847,351.124,269.294,351.124z M262.47,349.124h5.824v-11.947h-5.824V349.124z"
					/>
			</g>
		</g>
		<g>
			<path style="opacity:0.46;fill:#233863;" d="M172.082,340.69l-62.338,20.596c-3.334,1.101-6.929-0.708-8.031-4.042
				l-20.355-61.607c-1.101-3.334,0.708-6.929,4.042-8.031l62.338-20.596c3.334-1.102,6.929,0.708,8.031,4.042l20.355,61.607
				C177.225,335.993,175.415,339.588,172.082,340.69z"/>
			<g>
				<path style="fill:#FFFFFF;" d="M166.071,337.97l-57.729,19.073c-3.334,1.102-6.929-0.708-8.031-4.042l-19.074-57.729
					c-1.102-3.334,0.708-6.929,4.042-8.031l57.729-19.073c3.334-1.102,6.929,0.708,8.031,4.042l19.073,57.729
					C171.214,333.273,169.405,336.868,166.071,337.97z"/>
				<path style="fill:#233863;" d="M106.34,358.868c-1.211,0-2.413-0.283-3.525-0.843c-1.875-0.943-3.27-2.561-3.928-4.554
					l-19.073-57.729c-0.659-1.993-0.502-4.123,0.441-5.998c0.943-1.875,2.561-3.27,4.554-3.928l57.73-19.073
					c1.995-0.661,4.123-0.501,5.997,0.441c1.875,0.943,3.27,2.561,3.928,4.554l19.074,57.73c1.358,4.114-0.883,8.566-4.995,9.925
					l0,0l-57.73,19.073C108.002,358.735,107.169,358.868,106.34,358.868z M145.008,269.345c-0.513,0-1.027,0.082-1.528,0.247
					l-57.73,19.073c-2.543,0.841-3.929,3.594-3.089,6.137l19.073,57.729c0.84,2.543,3.594,3.927,6.137,3.089l57.73-19.073
					c2.542-0.841,3.928-3.593,3.088-6.136l-19.073-57.729c-0.407-1.232-1.27-2.232-2.429-2.815
					C146.499,269.52,145.756,269.345,145.008,269.345z M166.071,337.97h0.01H166.071z"/>
			</g>
			<g>
				<g>
					
						<rect x="98.412" y="285.342" transform="matrix(0.9495 -0.3137 0.3137 0.9495 -91.7248 55.2075)" style="fill:#3D85FD;" width="54.527" height="54.527"/>
					<path style="fill:#233863;" d="M108.341,348.546c-0.232,0-0.463-0.054-0.675-0.16c-0.355-0.179-0.625-0.491-0.749-0.869
						l-17.106-51.774c-0.261-0.787,0.167-1.635,0.953-1.895l51.774-17.105c0.789-0.263,1.635,0.168,1.895,0.953l17.106,51.773
						c0.125,0.378,0.095,0.79-0.084,1.145c-0.179,0.355-0.491,0.625-0.869,0.749l-51.774,17.106
						C108.658,348.521,108.499,348.546,108.341,348.546z M93.13,296.226l16.165,48.926l48.926-16.166l-16.166-48.925L93.13,296.226z
						"/>
				</g>
				<g>
					<path style="fill:#FFFFFF;" d="M104.903,336.399l2.284-13.939c0.61-3.722,4.72-5.719,8.023-3.897l6.347,3.5
						c2.499,1.378,5.623-0.002,6.288-2.777l3.451-14.406c1.344-5.612,8.231-7.704,12.47-3.788l9.928,9.172l6.584,19.928
						l-51.774,17.106L104.903,336.399z"/>
					<path style="fill:#233863;" d="M108.504,348.799c-0.232,0-0.463-0.054-0.675-0.16c-0.354-0.179-0.625-0.491-0.749-0.869
						l-3.601-10.9c-0.076-0.23-0.096-0.475-0.057-0.713l2.283-13.94c0.365-2.228,1.796-4.147,3.826-5.134
						c2.032-0.988,4.425-0.924,6.402,0.166l6.347,3.5c0.778,0.428,1.689,0.468,2.501,0.11c0.813-0.358,1.396-1.06,1.603-1.923
						l3.451-14.406c0.757-3.158,3.064-5.608,6.171-6.553c3.112-0.945,6.391-0.191,8.775,2.013l9.929,9.173
						c0.188,0.172,0.327,0.39,0.406,0.631l6.584,19.928c0.261,0.787-0.167,1.635-0.953,1.895l-51.774,17.106
						C108.821,348.773,108.662,348.799,108.504,348.799z M106.443,336.277l3.015,9.127l48.926-16.166l-5.992-18.135l-9.644-8.91
						c-1.596-1.473-3.79-1.975-5.867-1.346c-2.078,0.632-3.62,2.27-4.126,4.382l-3.451,14.406c-0.428,1.781-1.634,3.228-3.31,3.968
						c-1.677,0.74-3.558,0.657-5.161-0.227l-6.347-3.5c-1.142-0.63-2.469-0.665-3.642-0.095c-1.173,0.569-1.967,1.634-2.177,2.92
						L106.443,336.277z"/>
				</g>
				<g>
					<path style="fill:#FFFFFF;" d="M124.459,304.006c1.053,3.188-0.677,6.626-3.865,7.68c-3.188,1.053-6.627-0.677-7.68-3.865
						c-1.053-3.188,0.677-6.627,3.865-7.68C119.967,299.087,123.406,300.818,124.459,304.006z"/>
					<path style="fill:#233863;" d="M118.679,313.496c-1.168,0-2.327-0.272-3.4-0.813c-1.809-0.91-3.154-2.471-3.789-4.393
						c-0.635-1.922-0.483-3.976,0.427-5.785c0.91-1.809,2.47-3.154,4.393-3.789c1.923-0.637,3.976-0.485,5.785,0.426
						c1.808,0.91,3.154,2.47,3.789,4.393c0.636,1.923,0.484,3.978-0.426,5.786c-0.911,1.809-2.471,3.153-4.393,3.789
						C120.282,313.368,119.479,313.496,118.679,313.496z M118.691,301.331c-0.483,0-0.969,0.077-1.441,0.233
						c-1.162,0.385-2.104,1.197-2.654,2.29c-0.55,1.093-0.642,2.334-0.258,3.495c0.384,1.162,1.197,2.104,2.289,2.654
						c1.093,0.549,2.333,0.639,3.496,0.258c1.161-0.384,2.104-1.197,2.654-2.29c0.55-1.092,0.642-2.334,0.258-3.495
						c-0.385-1.162-1.197-2.104-2.29-2.654C120.097,301.496,119.396,301.331,118.691,301.331z"/>
				</g>
			</g>
		</g>
	</g>
	<g>
		<g>
			<path style="opacity:0.46;fill:#233863;" d="M263.162,218.353l-99.296,32.807c-3.334,1.102-6.929-0.708-8.031-4.042
				l-32.446-98.202c-1.101-3.334,0.708-6.929,4.042-8.031l99.296-32.807c3.334-1.102,6.929,0.708,8.031,4.042l32.445,98.202
				C268.306,213.656,266.496,217.251,263.162,218.353z"/>
			<g>
				<path style="fill:#FFFFFF;" d="M254.166,214.282l-92.398,30.528c-3.334,1.102-6.929-0.708-8.031-4.042L123.21,148.37
					c-1.102-3.334,0.708-6.929,4.042-8.031l92.398-30.528c3.334-1.102,6.929,0.708,8.031,4.042l30.528,92.398
					C259.309,209.585,257.5,213.18,254.166,214.282z"/>
				<path style="fill:#233863;" d="M159.779,246.631c-3.298,0-6.376-2.095-7.466-5.393l-30.527-92.398
					c-0.659-1.993-0.502-4.122,0.441-5.997c0.943-1.874,2.561-3.27,4.554-3.928l92.397-30.528c4.118-1.359,8.565,0.883,9.925,4.996
					l30.528,92.398c0.659,1.993,0.502,4.123-0.441,5.997c-0.943,1.874-2.56,3.27-4.554,3.928l0,0l-92.397,30.528
					C161.424,246.503,160.595,246.631,159.779,246.631z M221.64,110.99c-0.504,0-1.016,0.079-1.52,0.246l-92.397,30.528
					c-1.233,0.407-2.231,1.27-2.815,2.428c-0.583,1.159-0.68,2.476-0.273,3.707l30.527,92.398c0.84,2.543,3.594,3.93,6.137,3.088
					l92.397-30.528c2.543-0.84,3.929-3.593,3.089-6.136l-30.528-92.398C225.582,112.285,223.678,110.99,221.64,110.99z
					 M254.166,214.282h0.01H254.166z"/>
			</g>
			<g>
				<g>
					
						<rect x="149.904" y="136.506" transform="matrix(0.9495 -0.3137 0.3137 0.9495 -45.9975 68.7794)" style="fill:#3AAED5;" width="81.609" height="81.609"/>
					<path style="fill:#233863;" d="M164.766,230.356c-0.63,0-1.216-0.399-1.424-1.03l-25.602-77.489
						c-0.125-0.378-0.095-0.79,0.084-1.145c0.179-0.355,0.491-0.625,0.869-0.75l77.489-25.602c0.378-0.126,0.789-0.095,1.146,0.085
						c0.354,0.179,0.625,0.492,0.749,0.869l25.602,77.489c0.261,0.787-0.167,1.635-0.953,1.895l-77.488,25.602
						C165.08,230.332,164.921,230.356,164.766,230.356z M141.058,152.321l24.662,74.64l74.64-24.661l-24.661-74.64L141.058,152.321z
						"/>
				</g>
				<g>
					<path style="fill:#FFFFFF;" d="M159.62,212.921l3.418-20.863c0.913-5.571,7.065-8.559,12.008-5.833l9.499,5.239
						c3.74,2.062,8.416-0.003,9.411-4.156l5.165-21.561c2.012-8.399,12.319-11.53,18.663-5.669l14.86,13.728l9.854,29.826
						l-77.489,25.602L159.62,212.921z"/>
					<path style="fill:#233863;" d="M165.01,230.735c-0.63,0-1.216-0.399-1.424-1.03l-5.391-16.313
						c-0.076-0.23-0.096-0.475-0.057-0.713l3.418-20.863c0.516-3.143,2.454-5.743,5.318-7.134c2.865-1.391,6.107-1.307,8.895,0.23
						l9.5,5.239c1.37,0.755,2.976,0.827,4.404,0.194c1.43-0.632,2.459-1.866,2.822-3.386l5.166-21.561
						c1.07-4.467,4.334-7.932,8.73-9.268c4.395-1.335,9.035-0.272,12.41,2.846l14.859,13.729c0.188,0.172,0.327,0.39,0.406,0.631
						l9.855,29.826c0.261,0.787-0.167,1.635-0.953,1.895l-77.488,25.602C165.324,230.71,165.165,230.735,165.01,230.735z
						 M161.159,212.8l4.805,14.54l74.64-24.661l-9.263-28.034l-14.574-13.466c-2.585-2.386-6.138-3.202-9.503-2.179
						c-3.366,1.022-5.864,3.675-6.684,7.096l-5.166,21.561c-0.584,2.439-2.234,4.418-4.528,5.431c-2.295,1.014-4.87,0.9-7.065-0.312
						l-9.5-5.239c-1.922-1.061-4.158-1.118-6.135-0.159c-1.975,0.96-3.313,2.753-3.668,4.921L161.159,212.8z"/>
				</g>
				<g>
					<path style="fill:#FFFFFF;" d="M188.889,164.439c1.577,4.772-1.014,9.918-5.785,11.494c-4.772,1.576-9.918-1.014-11.494-5.785
						c-1.577-4.772,1.014-9.918,5.785-11.494C182.166,157.078,187.312,159.668,188.889,164.439z"/>
					<path style="fill:#233863;" d="M180.238,177.898c-1.632,0-3.254-0.382-4.755-1.137c-2.528-1.272-4.41-3.454-5.298-6.142
						c-0.889-2.688-0.677-5.561,0.596-8.09c1.273-2.529,3.454-4.411,6.143-5.299c2.686-0.888,5.561-0.677,8.091,0.597
						c2.528,1.272,4.41,3.454,5.298,6.142c0.889,2.688,0.677,5.562-0.596,8.09c-1.273,2.529-3.455,4.411-6.143,5.299
						C182.481,177.719,181.357,177.898,180.238,177.898z M180.257,159.691c-0.803,0-1.608,0.128-2.392,0.388
						c-1.928,0.637-3.491,1.986-4.404,3.799c-0.912,1.813-1.064,3.873-0.428,5.8c0.637,1.927,1.986,3.491,3.8,4.404
						c1.814,0.914,3.875,1.065,5.8,0.428c3.979-1.314,6.146-5.621,4.832-9.599c-0.637-1.927-1.986-3.491-3.8-4.404
						C182.59,159.965,181.427,159.691,180.257,159.691z"/>
				</g>
			</g>
		</g>
		<g>
			<path style="opacity:0.48;fill:#233863;" d="M310.28,200.666l-90.683-35.297c-3.272-1.273-4.892-4.958-3.618-8.23l34.905-89.676
				c1.274-3.272,4.958-4.892,8.23-3.618l90.683,35.297c3.272,1.273,4.892,4.958,3.618,8.23l-34.905,89.676
				C317.236,200.319,313.552,201.939,310.28,200.666z"/>
			<g>
				<path style="fill:#FFFFFF;" d="M306.204,192.348l-84.332-32.825c-3.272-1.273-4.892-4.958-3.618-8.23l32.825-84.332
					c1.273-3.272,4.958-4.892,8.23-3.618l84.332,32.825c3.272,1.274,4.892,4.958,3.618,8.23l-32.825,84.332
					C313.161,192.001,309.476,193.621,306.204,192.348z"/>
				<path style="fill:#233863;" d="M308.501,194.281c-0.946,0-1.907-0.172-2.841-0.535l0,0l-84.332-32.825
					c-4.037-1.572-6.043-6.135-4.472-10.172l32.825-84.332c1.571-4.038,6.135-6.043,10.172-4.473l84.332,32.825
					c4.037,1.572,6.044,6.135,4.472,10.172l-32.825,84.332C314.624,192.377,311.647,194.281,308.501,194.281z M306.748,190.95
					c2.498,0.972,5.317-0.269,6.289-2.764l32.825-84.332c0.971-2.496-0.27-5.317-2.765-6.289L258.766,64.74
					c-2.501-0.974-5.318,0.27-6.289,2.765l-32.825,84.332c-0.971,2.496,0.27,5.317,2.765,6.288L306.748,190.95z"/>
			</g>
			<g>
				<g>
					
						<rect x="244.48" y="89.568" transform="matrix(0.9319 0.3627 -0.3627 0.9319 65.6299 -93.8568)" style="fill:#3D85FD;" width="76.554" height="76.554"/>
					<path style="fill:#233863;" d="M304.543,178.899c-0.185,0-0.369-0.034-0.544-0.102l-71.34-27.768
						c-0.772-0.301-1.154-1.17-0.854-1.942l27.768-71.34c0.144-0.371,0.43-0.669,0.794-0.829c0.365-0.16,0.777-0.169,1.147-0.025
						l71.34,27.769c0.773,0.301,1.154,1.17,0.854,1.942l-27.768,71.34c-0.143,0.371-0.43,0.669-0.794,0.829
						C304.954,178.856,304.749,178.899,304.543,178.899z M235.145,148.777l68.544,26.68l26.679-68.544l-68.544-26.68
						L235.145,148.777z"/>
				</g>
				<g>
					<path style="fill:#FFFFFF;" d="M238.999,135.031l14.934-13.048c3.988-3.484,10.223-1.971,12.17,2.953l3.741,9.464
						c1.473,3.725,6.089,5.025,9.289,2.615l16.615-12.51c6.473-4.873,15.798-0.981,16.885,7.047l2.548,18.806l-10.688,27.46
						l-71.34-27.768L238.999,135.031z"/>
					<path style="fill:#233863;" d="M304.493,179.319c-0.182,0-0.365-0.033-0.544-0.103l-71.34-27.768
						c-0.773-0.301-1.154-1.17-0.854-1.942l5.846-15.019c0.087-0.226,0.229-0.426,0.41-0.585l14.934-13.048
						c2.273-1.985,5.257-2.717,8.191-2.004c2.933,0.711,5.251,2.729,6.36,5.536l3.741,9.464c0.528,1.337,1.625,2.327,3.009,2.716
						c1.383,0.39,2.836,0.117,3.983-0.747l16.615-12.51c3.47-2.612,7.934-3.174,11.942-1.501c4.008,1.673,6.749,5.241,7.332,9.545
						l2.548,18.806c0.034,0.252,0.004,0.508-0.089,0.745l-10.689,27.46C305.66,178.956,305.093,179.319,304.493,179.319z
						 M235.096,149.196l68.544,26.68l10.004-25.7l-2.496-18.422c-0.438-3.237-2.5-5.92-5.515-7.179
						c-3.013-1.258-6.372-0.837-8.982,1.128l-16.615,12.51c-1.902,1.433-4.309,1.886-6.602,1.238
						c-2.292-0.646-4.109-2.286-4.984-4.501l-3.741-9.463c-0.747-1.887-2.307-3.245-4.278-3.724c-1.975-0.48-3.981,0.012-5.51,1.349
						l-14.656,12.806L235.096,149.196z"/>
				</g>
				<g>
					<path style="fill:#FFB44F;" d="M289.128,117.448c-1.71,4.393-6.657,6.568-11.05,4.858c-4.393-1.71-6.568-6.657-4.858-11.05
						c1.71-4.393,6.657-6.568,11.05-4.858C288.663,108.108,290.838,113.055,289.128,117.448z"/>
					<path style="fill:#233863;" d="M281.177,124.393c-1.23,0-2.462-0.229-3.643-0.689c-5.157-2.008-7.72-7.836-5.712-12.992
						c2.007-5.157,7.838-7.716,12.992-5.712c5.156,2.007,7.719,7.835,5.711,12.992l0,0c-0.972,2.498-2.858,4.468-5.313,5.546
						C283.919,124.107,282.549,124.393,281.177,124.393z M281.183,107.316c-2.818,0-5.483,1.704-6.565,4.483
						c-1.406,3.615,0.39,7.701,4.005,9.108c1.753,0.682,3.665,0.641,5.384-0.116c1.721-0.756,3.043-2.137,3.725-3.888l0,0
						c1.407-3.615-0.39-7.701-4.004-9.108C282.891,107.471,282.029,107.316,281.183,107.316z"/>
				</g>
			</g>
		</g>
	</g>
</g>

</svg>
